<svg width="56" height="48" viewBox="0 0 56 48" fill="none" xmlns="http://www.w3.org/2000/svg">
<rect width="56" height="48" rx="10" fill="#FAF7F7"/>
<path d="M35.683 22.5C40.2764 22.5 44 26.1936 44 30.75C44 35.3064 40.2764 39 35.683 39C31.0895 39 27.3659 35.3064 27.3659 30.75C27.3659 26.1936 31.0895 22.5 35.683 22.5ZM16.0248 18.5581L16.0245 31.125C16.0245 32.5023 17.0938 33.6318 18.4538 33.7413L18.6709 33.75L26.328 33.7506C26.5888 34.5513 26.9513 35.3067 27.4001 36.0018L18.6709 36C16.0502 36 13.9086 33.9653 13.764 31.4016L13.7562 31.125L13.7558 18.5581C14.1107 18.6826 14.4926 18.7503 14.8904 18.7503C15.2882 18.7503 15.67 18.6826 16.0248 18.5581ZM37.1952 34.5022H34.1708L34.1809 34.6771C34.2683 35.4232 34.9075 36.0022 35.683 36.0022C36.5181 36.0022 37.1952 35.3307 37.1952 34.5022ZM35.6881 25.5L35.435 25.5107C34.0184 25.6386 32.9107 26.6571 32.6996 27.9625L32.6717 28.1958L32.6633 28.5014V30.4404L31.3685 31.7212C30.9231 32.1619 31.1871 32.8959 31.7723 32.9917L31.9025 33.0022H39.4634C40.0922 33.0022 40.4279 32.2986 40.0827 31.8205L39.9981 31.722L38.7148 30.4489V28.4204L38.7064 28.201C38.5906 26.6817 37.2795 25.5 35.6881 25.5ZM28.5855 24.0048C27.9416 24.6712 27.3922 25.4282 26.9587 26.2544L22.4479 26.2547C21.8216 26.2547 21.3138 25.7509 21.3138 25.1297C21.3138 24.5601 21.7405 24.0894 22.294 24.0149L22.4479 24.0047L28.5855 24.0048ZM36.061 9C38.6816 9 40.8232 11.0347 40.9679 13.5984L40.9756 13.875L40.9767 22.5334C40.2761 22.0884 39.5149 21.729 38.7079 21.4704L38.7073 13.875C38.7073 12.4977 37.6381 11.3682 36.278 11.2587L36.061 11.25H18.6709C17.7633 11.25 16.9624 11.7032 16.4857 12.3939C16.011 12.1425 15.4675 12 14.8904 12C14.6163 12 14.3499 12.0321 14.0946 12.0928C14.78 10.3635 16.4328 9.11643 18.392 9.00771L18.6709 9H36.061ZM32.2839 18.7443C32.9104 18.7443 33.418 19.248 33.418 19.8693C33.418 20.4388 32.9914 20.9095 32.4378 20.9841L32.2839 20.9943H22.4479C21.8216 20.9943 21.3138 20.4906 21.3138 19.8693C21.3138 19.2998 21.7405 18.8291 22.294 18.7546L22.4479 18.7443H32.2839ZM14.8904 13.5C15.9344 13.5 16.7808 14.3395 16.7808 15.3752C16.7808 16.4108 15.9344 17.2503 14.8904 17.2503C13.8464 17.2503 13 16.4108 13 15.3752C13 14.3395 13.8464 13.5 14.8904 13.5Z" fill="#D12E2E"/>
</svg>
