<svg width="20" height="18" viewBox="0 0 20 18" fill="none" xmlns="http://www.w3.org/2000/svg">
<path d="M18.165 18L11.3137 11.7C10.77 12.1 10.1447 12.4167 9.4378 12.65C8.73093 12.8833 7.97874 13 7.18124 13C5.20561 13 3.53376 12.3707 2.16569 11.112C0.797613 9.85333 0.113213 8.316 0.112488 6.5C0.112488 4.68333 0.796888 3.146 2.16569 1.888C3.53449 0.63 5.20634 0.000666667 7.18124 0C9.15686 0 10.8291 0.629333 12.1979 1.888C13.5667 3.14667 14.2507 4.684 14.25 6.5C14.25 7.23333 14.1231 7.925 13.8694 8.575C13.6156 9.225 13.2712 9.8 12.8362 10.3L19.6875 16.6L18.165 18ZM7.18124 11C8.54061 11 9.69626 10.5627 10.6482 9.688C11.6001 8.81333 12.0757 7.75067 12.075 6.5C12.075 5.25 11.5994 4.18767 10.6482 3.313C9.69699 2.43833 8.54134 2.00067 7.18124 2C5.82186 2 4.66658 2.43767 3.71538 3.313C2.76418 4.18833 2.28821 5.25067 2.28749 6.5C2.28749 7.75 2.76345 8.81267 3.71538 9.688C4.6673 10.5633 5.82259 11.0007 7.18124 11Z" fill="black"/>
</svg>
